<svg id="Layer_1" data-name="Layer 1" xmlns="http://www.w3.org/2000/svg" viewBox="0 0 800 800"><defs><style>.cls-1,.cls-2{fill:#2372e5;}.cls-2{font-size:43.9px;font-family:Gilroy-Bold, Gilroy;font-weight:700;}</style></defs><polygon class="cls-1" points="395.83 526.61 395.62 526.69 395.62 526.53 395.83 526.61"/><polygon class="cls-1" points="395.83 190.07 395.62 190.14 395.62 189.98 395.83 190.07"/><polygon class="cls-1" points="395.97 324.66 395.62 324.7 395.62 204.09 395.89 203.98 395.97 324.66"/><polygon class="cls-1" points="396.24 191.3 396.24 197.06 396.01 196.96 395.62 197.12 395.62 191.55 396.24 191.3"/><polygon class="cls-1" points="395.97 366.4 395.97 373.12 395.87 512.68 395.62 512.57 395.62 366.44 395.97 366.4"/><path class="cls-1" d="M206.28,379.63v1.44h-.21A4.94,4.94,0,0,1,206.28,379.63Z"/><path class="cls-1" d="M206.82,358.6a5.14,5.14,0,0,1-.75-2.68V271.85a4.85,4.85,0,0,1,.21-1.43V356.3A5.06,5.06,0,0,0,206.82,358.6Z"/><path class="cls-1" d="M257.12,288l106-43.3v53.89L259.33,317.22a4,4,0,0,1-4.68-3.91V291.72A4,4,0,0,1,257.12,288Z"/><polygon class="cls-1" points="395.97 324.66 395.62 324.7 395.62 204.09 395.89 203.98 395.97 324.66"/><polygon class="cls-1" points="395.97 366.4 395.97 373.12 395.62 373.14 395.62 366.44 395.97 366.4"/><polygon class="cls-1" points="396.24 191.3 396.24 197.06 396.01 196.96 395.62 197.12 395.62 191.55 396.24 191.3"/><path class="cls-1" d="M257.12,288l106-43.3v53.89L259.33,317.22a4,4,0,0,1-4.68-3.91V291.72A4,4,0,0,1,257.12,288Z"/><polygon class="cls-1" points="395.97 324.66 395.62 324.7 395.62 204.09 395.89 203.98 395.97 324.66"/><path class="cls-1" d="M258.43,405.36l104.71-5v53.74l-105.21-19a4,4,0,0,1-3.28-3.91V409.33A4,4,0,0,1,258.43,405.36Z"/><polygon class="cls-1" points="395.97 366.4 395.97 373.12 395.87 512.68 395.62 512.57 395.62 366.44 395.97 366.4"/><path class="cls-1" d="M442,342.24l137.94,17.52a5.21,5.21,0,0,0,5.87-5.17V270.52a5.18,5.18,0,0,0-3.26-4.82L408.82,195.32v0L396,190l-.2.09-.22.07L209.53,265.53a5.22,5.22,0,0,0-3.25,4.83V356.3a5.21,5.21,0,0,0,5.19,5.21,5.06,5.06,0,0,0,.68-.05l138.51-17.92a5.2,5.2,0,0,1,5.08,5.2v4.15a5.23,5.23,0,0,1-3.36,4.88L211,371.9a5.19,5.19,0,0,0-4.69,5.18v69.24a5.2,5.2,0,0,0,3.25,4.82l186.09,75.39.22.07.2.09,12.76-5.32h0L582.54,451a5.17,5.17,0,0,0,3.26-4.81V379.74a5.23,5.23,0,0,0-4.56-5.16L440.68,356.73a5.21,5.21,0,0,1-4.55-5.17v-4.15A5.21,5.21,0,0,1,442,342.24Zm-5.53-97.5,106,43.3a4,4,0,0,1,2.47,3.69v21.58a4,4,0,0,1-4.68,3.92l-103.82-18.6ZM396,373.12l-.1,139.56-.25-.11L219.2,441.12V384.05L280,378l115.59-11.53.35,0Zm-.35-48.42-1.07.13-.17,0L219.2,347.52v-72l176.42-71.46.27-.11L396,324.66Zm40.84,75.62,104.7,5a4,4,0,0,1,3.8,4v21.83a4,4,0,0,1-3.28,3.92l-105.22,19Z"/><path class="cls-1" d="M363.14,244.74v53.89L259.33,317.22a4,4,0,0,1-4.68-3.91V291.72a4,4,0,0,1,2.47-3.68Z"/><path class="cls-1" d="M363.14,400.32v53.74l-105.21-19a4,4,0,0,1-3.28-3.91V409.33a4,4,0,0,1,3.78-4Z"/><text class="cls-2" transform="translate(203.44 598.48)">BizHome Solutions </text></svg>